<svg version="1.1" xmlns="http://www.w3.org/2000/svg" xmlns:xlink="http://www.w3.org/1999/xlink" width="512.000000pt" height="512.000000pt" viewBox="0,0,256,256"><g fill="#5c7cfa" fill-rule="nonzero" stroke="none" stroke-width="1" stroke-linecap="butt" stroke-linejoin="miter" stroke-miterlimit="10" stroke-dasharray="" stroke-dashoffset="0" font-family="none" font-weight="none" font-size="none" text-anchor="none" style="mix-blend-mode: normal"><g transform="translate(-0.14682,0.11357) scale(0.5,0.5)"><g transform="translate(0,512) scale(0.1,-0.1)"><path d="M3935,4786c-16,-8 -186,-171 -377,-362c-375,-377 -370,-371 -353,-461c9,-49 69,-109 118,-118c85,-16 96,-9 316,208l203,202l-5,-275c-9,-439 -54,-732 -165,-1060c-103,-307 -238,-539 -426,-737c-77,-81 -208,-193 -227,-193c-4,0 -3,19 2,42c12,62 12,284 -1,348c-57,300 -243,521 -518,614c-351,120 -730,-10 -932,-321c-50,-76 -79,-143 -108,-248c-23,-84 -22,-297 2,-385c79,-287 283,-486 581,-566c34,-9 125,-19 210,-23l150,-6l-105,-106c-314,-316 -755,-541 -1260,-642c-158,-32 -275,-46 -467,-55c-130,-7 -157,-11 -180,-28c-52,-39 -68,-71 -68,-134c0,-63 16,-95 69,-134c25,-19 41,-21 179,-20c313,2 672,67 985,180c152,55 412,180 537,259c301,189 559,442 714,698c50,82 50,83 128,114c522,214 920,740 1104,1459c78,308 109,551 116,932l6,284l201,-200c216,-216 228,-223 313,-207c49,9 109,69 118,118c17,90 22,84 -353,461c-194,194 -361,354 -379,362c-40,17 -89,17 -128,0zM2396,2696c29,-9 80,-35 114,-58c154,-103 229,-297 201,-523c-12,-101 -62,-275 -86,-299c-44,-44 -382,-65 -504,-32c-229,62 -361,230 -361,460c0,208 152,402 361,461c66,18 201,14 275,-9z"></path></g></g></g></svg>