<?xml version="1.0" standalone="no"?>
<!DOCTYPE svg PUBLIC "-//W3C//DTD SVG 20010904//EN"
 "http://www.w3.org/TR/2001/REC-SVG-20010904/DTD/svg10.dtd">
<svg version="1.0" xmlns="http://www.w3.org/2000/svg"
 width="512.000000pt" height="512.000000pt" viewBox="0 0 512.000000 512.000000"
 preserveAspectRatio="xMidYMid meet">

<g transform="translate(0.000000,512.000000) scale(0.100000,-0.100000)"
fill="#000000" stroke="none">
<path d="M3935 4786 c-16 -8 -186 -171 -377 -362 -375 -377 -370 -371 -353
-461 9 -49 69 -109 118 -118 85 -16 96 -9 316 208 l203 202 -5 -275 c-9 -439
-54 -732 -165 -1060 -103 -307 -238 -539 -426 -737 -77 -81 -208 -193 -227
-193 -4 0 -3 19 2 42 12 62 12 284 -1 348 -57 300 -243 521 -518 614 -351 120
-730 -10 -932 -321 -50 -76 -79 -143 -108 -248 -23 -84 -22 -297 2 -385 79
-287 283 -486 581 -566 34 -9 125 -19 210 -23 l150 -6 -105 -106 c-314 -316
-755 -541 -1260 -642 -158 -32 -275 -46 -467 -55 -130 -7 -157 -11 -180 -28
-52 -39 -68 -71 -68 -134 0 -63 16 -95 69 -134 25 -19 41 -21 179 -20 313 2
672 67 985 180 152 55 412 180 537 259 301 189 559 442 714 698 50 82 50 83
128 114 522 214 920 740 1104 1459 78 308 109 551 116 932 l6 284 201 -200
c216 -216 228 -223 313 -207 49 9 109 69 118 118 17 90 22 84 -353 461 -194
194 -361 354 -379 362 -40 17 -89 17 -128 0z m-1539 -2090 c29 -9 80 -35 114
-58 154 -103 229 -297 201 -523 -12 -101 -62 -275 -86 -299 -44 -44 -382 -65
-504 -32 -229 62 -361 230 -361 460 0 208 152 402 361 461 66 18 201 14 275
-9z"/>
</g>
</svg>
